<?xml version="1.0" standalone="no"?>
<!DOCTYPE svg PUBLIC "-//W3C//DTD SVG 20010904//EN"
 "http://www.w3.org/TR/2001/REC-SVG-20010904/DTD/svg10.dtd">
<svg version="1.0" xmlns="http://www.w3.org/2000/svg"
 width="2000.000000pt" height="2000.000000pt" viewBox="0 0 2000.000000 2000.000000"
 preserveAspectRatio="xMidYMid meet">
<metadata>
Created by potrace 1.14, written by Peter Selinger 2001-2017
</metadata>
<g transform="translate(0.000000,2000.000000) scale(0.100000,-0.100000)"
fill="#000000" stroke="none">
<path d="M9747 19984 c-1 -1 -81 -5 -177 -9 -96 -4 -193 -8 -215 -10 -22 -1
-85 -6 -139 -9 -55 -4 -113 -9 -130 -11 -17 -2 -60 -7 -96 -10 -93 -8 -369
-43 -479 -61 -51 -8 -109 -16 -128 -19 -20 -2 -43 -7 -52 -9 -9 -3 -32 -7 -51
-10 -91 -14 -125 -20 -255 -46 -77 -16 -151 -31 -165 -34 -101 -20 -448 -106
-565 -141 -27 -8 -90 -26 -140 -40 -331 -96 -883 -299 -1180 -435 -36 -16 -67
-30 -69 -30 -2 0 -52 -23 -112 -52 -60 -28 -111 -52 -114 -53 -8 -1 -254 -126
-365 -185 -232 -123 -630 -357 -757 -447 -26 -18 -52 -33 -57 -33 -5 0 -11 -3
-13 -7 -1 -5 -30 -26 -63 -48 -65 -43 -234 -160 -250 -172 -6 -4 -73 -55 -150
-112 -158 -118 -348 -268 -445 -351 -35 -30 -78 -66 -94 -80 -17 -14 -40 -34
-51 -45 -12 -11 -39 -35 -61 -54 -110 -95 -258 -235 -434 -411 -205 -205 -250
-253 -395 -415 -49 -55 -92 -102 -95 -105 -3 -3 -25 -30 -50 -60 -43 -52 -83
-100 -105 -124 -47 -52 -304 -386 -426 -556 -116 -159 -419 -620 -419 -636 0
-2 -15 -28 -34 -57 -130 -202 -416 -755 -556 -1072 -63 -142 -203 -489 -235
-580 -9 -27 -21 -59 -26 -70 -12 -27 -98 -282 -111 -325 -5 -19 -20 -66 -33
-105 -25 -75 -39 -121 -60 -200 -7 -27 -20 -75 -28 -105 -55 -199 -137 -539
-162 -675 -3 -16 -10 -52 -15 -80 -5 -27 -11 -60 -14 -73 -3 -13 -15 -81 -26
-150 -12 -70 -23 -138 -26 -152 -2 -14 -13 -95 -24 -180 -28 -207 -29 -216
-35 -280 -3 -30 -8 -73 -10 -95 -2 -22 -7 -78 -10 -125 -4 -47 -8 -101 -10
-120 -20 -214 -28 -1041 -12 -1275 21 -307 27 -385 32 -415 2 -14 7 -54 10
-90 6 -65 11 -113 20 -180 3 -19 7 -53 10 -75 15 -126 61 -412 90 -565 144
-749 368 -1466 677 -2170 129 -293 428 -870 551 -1063 20 -32 37 -59 37 -61 0
-23 512 -784 549 -816 3 -3 35 -43 71 -90 64 -85 219 -281 230 -290 3 -3 28
-32 55 -65 80 -96 89 -107 100 -119 290 -329 688 -730 920 -927 22 -19 42 -37
45 -40 13 -15 227 -195 340 -285 221 -178 617 -465 769 -559 9 -5 41 -26 71
-46 30 -20 120 -76 200 -124 80 -49 161 -99 181 -112 19 -12 38 -23 41 -23 3
0 44 -22 91 -49 170 -98 520 -277 725 -370 146 -67 461 -201 471 -201 4 0 22
-7 38 -15 59 -30 526 -194 708 -249 84 -26 391 -113 425 -121 8 -2 92 -22 185
-45 144 -34 243 -56 340 -76 86 -17 352 -66 385 -70 14 -1 39 -5 55 -8 47 -8
84 -14 275 -41 14 -2 56 -6 93 -10 37 -3 76 -8 85 -10 9 -1 53 -6 97 -10 44
-4 91 -8 105 -11 14 -2 72 -6 130 -10 58 -3 121 -8 140 -10 222 -22 1024 -22
1285 1 28 2 82 7 120 10 168 13 218 17 330 30 28 3 66 8 85 10 68 8 145 17
161 20 9 2 40 6 70 10 30 3 77 10 104 15 28 5 68 12 90 15 36 5 74 11 130 21
112 21 154 28 210 40 257 50 853 199 871 217 4 4 15 7 24 7 18 0 325 96 415
130 28 10 109 40 180 65 112 41 338 128 400 156 11 4 61 26 110 47 318 139
598 277 915 454 259 144 462 268 710 436 178 121 431 302 458 329 7 7 16 13
20 13 4 0 21 13 38 28 17 15 46 38 64 52 47 36 202 163 311 254 85 71 153 132
333 296 79 72 434 427 511 510 33 36 94 104 135 150 41 47 77 87 80 90 18 16
231 274 311 375 116 146 276 362 350 470 30 44 56 82 59 85 11 10 229 349 299
464 258 424 531 967 710 1416 24 58 47 114 51 125 98 219 358 1049 405 1293 1
9 8 37 15 62 7 25 13 52 15 60 77 371 117 591 140 760 3 25 8 56 10 70 5 27
11 75 20 160 4 30 8 66 10 80 2 14 7 56 10 95 4 38 8 76 10 85 2 9 6 61 10
115 4 55 8 118 10 140 15 184 19 349 19 720 0 237 -3 480 -8 540 -16 237 -24
343 -31 415 -3 25 -7 70 -10 100 -3 30 -8 66 -10 80 -2 14 -7 53 -10 87 -3 34
-8 71 -10 83 -2 12 -7 41 -9 64 -5 38 -42 286 -50 331 -6 34 -36 188 -41 215
-3 14 -8 41 -11 60 -3 19 -14 71 -24 115 -11 45 -21 92 -23 105 -10 55 -119
473 -152 585 -20 66 -38 129 -41 140 -8 30 -10 39 -17 55 -3 8 -23 67 -43 130
-157 493 -425 1119 -682 1595 -101 188 -128 236 -245 430 -230 383 -509 783
-769 1105 -38 47 -74 92 -81 100 -24 30 -172 205 -177 210 -3 3 -43 48 -90
100 -173 195 -523 551 -695 706 -163 146 -242 216 -330 289 -33 28 -62 52 -65
55 -33 35 -455 357 -625 476 -198 140 -529 354 -546 354 -5 0 -9 4 -9 9 0 5
-8 11 -17 14 -10 4 -36 17 -58 30 -76 47 -220 130 -285 165 -36 19 -97 52
-137 73 -128 70 -442 224 -603 297 -193 87 -594 247 -750 298 -25 8 -54 19
-65 24 -11 4 -36 14 -55 20 -94 31 -260 84 -300 95 -273 80 -419 120 -473 131
-10 2 -27 6 -37 9 -10 3 -27 8 -37 10 -10 2 -77 17 -150 34 -150 34 -364 79
-420 86 -21 3 -58 10 -83 15 -25 5 -79 14 -120 20 -41 7 -86 13 -100 15 -14 3
-45 7 -70 10 -25 3 -56 7 -70 10 -28 5 -76 11 -160 20 -30 3 -71 8 -90 10
-168 20 -398 38 -646 51 -121 6 -702 12 -707 8z m678 -249 c94 -4 188 -9 210
-10 22 -2 81 -6 130 -10 50 -3 104 -7 120 -9 17 -3 66 -7 110 -11 44 -3 91 -8
105 -10 14 -3 43 -7 65 -9 132 -17 214 -27 245 -32 70 -10 106 -15 130 -20 14
-2 41 -7 60 -10 174 -26 555 -105 733 -150 56 -14 111 -28 122 -30 11 -2 45
-11 75 -20 30 -8 80 -23 110 -31 286 -80 702 -220 960 -324 101 -40 111 -45
140 -57 14 -6 99 -43 190 -83 246 -106 672 -319 823 -410 26 -16 50 -29 52
-29 20 0 562 -339 725 -454 110 -77 334 -239 340 -246 3 -3 32 -25 65 -50 58
-43 198 -154 221 -175 7 -5 20 -17 31 -25 23 -19 134 -111 149 -125 6 -5 24
-21 40 -34 176 -147 585 -542 759 -732 33 -36 83 -90 110 -120 91 -100 259
-296 361 -424 325 -404 637 -866 904 -1340 13 -22 36 -62 51 -90 59 -102 287
-565 353 -715 62 -141 226 -543 226 -554 0 -3 5 -17 12 -33 6 -15 13 -32 14
-38 239 -714 291 -900 409 -1475 1 -8 6 -35 10 -60 4 -25 9 -54 12 -65 2 -11
6 -33 8 -50 3 -16 7 -41 10 -55 11 -57 14 -77 20 -125 3 -27 8 -57 10 -65 2
-8 6 -37 10 -65 3 -27 8 -61 10 -75 2 -14 6 -50 10 -81 3 -31 7 -65 9 -75 2
-11 7 -55 11 -99 5 -44 9 -89 10 -100 2 -11 6 -58 9 -105 4 -47 9 -101 11
-120 12 -123 20 -395 20 -715 0 -404 -11 -658 -40 -935 -2 -25 -7 -74 -11
-110 -3 -36 -8 -73 -10 -83 -2 -10 -6 -46 -9 -80 -3 -34 -13 -105 -21 -157 -8
-52 -16 -111 -18 -130 -6 -46 -33 -205 -51 -300 -8 -41 -17 -86 -19 -100 -3
-14 -7 -36 -10 -50 -5 -22 -18 -86 -30 -145 -15 -73 -59 -251 -122 -495 -7
-27 -102 -340 -139 -460 -74 -235 -240 -662 -373 -960 -94 -210 -276 -568
-390 -770 -14 -25 -30 -54 -36 -65 -6 -11 -52 -87 -101 -168 -50 -82 -95 -157
-100 -166 -59 -103 -314 -474 -458 -666 -142 -189 -399 -509 -447 -555 -3 -3
-23 -25 -44 -50 -190 -218 -623 -656 -791 -799 -22 -18 -60 -52 -85 -75 -25
-23 -72 -64 -105 -91 -33 -28 -67 -57 -75 -64 -8 -8 -94 -77 -190 -154 -96
-76 -182 -144 -190 -150 -100 -81 -544 -387 -735 -506 -70 -44 -320 -191 -420
-247 -194 -108 -748 -384 -771 -384 -2 0 -32 -13 -66 -29 -257 -117 -779 -307
-1133 -411 -137 -41 -466 -128 -515 -136 -14 -3 -54 -12 -90 -20 -36 -9 -76
-18 -90 -20 -14 -3 -45 -10 -70 -15 -47 -11 -54 -13 -110 -23 -19 -3 -46 -8
-60 -11 -14 -3 -63 -12 -110 -20 -47 -8 -94 -17 -105 -19 -11 -2 -42 -7 -68
-10 -27 -4 -58 -9 -70 -12 -59 -11 -369 -50 -477 -60 -36 -3 -85 -7 -110 -10
-280 -26 -541 -37 -890 -36 -302 0 -516 8 -760 27 -117 9 -277 25 -310 30 -14
2 -47 6 -75 9 -86 9 -148 16 -205 26 -30 5 -77 12 -105 15 -27 3 -57 8 -65 10
-14 4 -39 8 -127 20 -21 3 -60 10 -88 16 -27 5 -61 11 -75 14 -69 13 -127 25
-145 29 -11 2 -74 16 -140 30 -173 37 -377 88 -560 141 -88 26 -180 53 -205
60 -230 65 -773 267 -1025 380 -219 99 -276 125 -410 191 -82 41 -188 95 -235
120 -47 25 -114 61 -150 80 -36 19 -72 39 -80 44 -43 27 -172 100 -176 100 -3
0 -17 8 -32 19 -15 10 -81 51 -147 92 -286 176 -640 423 -910 637 -130 103
-341 278 -365 302 -8 8 -51 47 -95 85 -232 203 -585 558 -806 809 -19 22 -43
49 -54 60 -29 31 -201 238 -279 336 -37 47 -73 92 -79 100 -38 47 -225 302
-294 400 -245 351 -541 849 -708 1190 -26 52 -51 102 -56 110 -63 104 -316
711 -427 1025 -156 440 -340 1129 -387 1451 -4 21 -8 47 -11 56 -6 20 -6 22
-28 163 -9 55 -18 109 -20 120 -2 11 -7 46 -11 79 -3 32 -8 68 -10 80 -5 30
-22 173 -30 246 -2 25 -7 65 -10 90 -3 25 -7 77 -10 115 -2 39 -6 97 -9 130
-28 314 -28 1043 -1 1415 9 126 20 241 30 338 3 26 7 65 9 87 8 82 50 377 62
440 2 11 7 43 10 70 4 28 8 52 10 55 1 3 10 46 18 95 27 155 40 213 131 605
31 132 198 694 225 755 5 11 19 49 31 85 68 204 206 547 332 825 90 200 341
681 457 875 175 294 394 625 569 860 139 188 451 576 482 600 4 3 23 25 44 50
120 144 519 553 709 725 121 110 105 96 201 180 44 39 82 72 85 75 5 5 59 50
245 201 213 173 743 547 971 684 83 49 247 146 289 169 126 71 158 89 235 130
198 107 809 396 838 396 4 0 18 6 32 13 14 7 48 21 75 31 28 10 64 25 80 32
223 99 867 302 1230 389 83 20 166 40 185 45 19 5 49 11 65 14 17 3 39 8 50
10 84 18 277 56 305 60 19 3 46 8 60 10 27 5 36 7 230 36 126 19 165 24 255
35 28 3 61 7 75 10 14 2 61 7 105 10 44 3 91 8 105 10 14 2 70 7 125 10 55 4
118 9 140 11 22 1 119 6 215 9 96 4 176 8 177 9 5 4 512 -2 658 -9z"/>
<path d="M9727 19584 c-1 -1 -78 -5 -172 -9 -239 -11 -343 -17 -455 -30 -19
-2 -64 -7 -100 -10 -36 -4 -78 -9 -95 -11 -16 -2 -52 -6 -80 -9 -75 -9 -322
-44 -385 -55 -30 -5 -68 -12 -85 -15 -16 -2 -41 -7 -55 -10 -64 -13 -137 -27
-160 -30 -230 -35 -818 -191 -1195 -317 -171 -57 -224 -76 -463 -169 -205 -79
-462 -193 -707 -314 -241 -118 -348 -176 -630 -337 -136 -78 -488 -305 -680
-439 -114 -80 -498 -372 -525 -399 -3 -3 -61 -52 -130 -110 -69 -58 -132 -112
-141 -120 -8 -8 -53 -49 -100 -91 -340 -309 -627 -607 -929 -964 -191 -226
-415 -526 -606 -810 -278 -414 -534 -868 -741 -1315 -48 -102 -48 -103 -116
-260 -38 -87 -133 -325 -152 -380 -1 -3 -5 -12 -8 -20 -128 -302 -367 -1147
-431 -1524 -3 -16 -10 -52 -15 -80 -12 -60 -18 -89 -31 -176 -6 -36 -13 -76
-15 -90 -4 -23 -9 -54 -20 -132 -12 -88 -34 -270 -40 -323 -3 -33 -8 -73 -10
-90 -2 -16 -7 -73 -10 -125 -4 -52 -9 -108 -11 -125 -26 -211 -26 -1129 1
-1415 2 -25 7 -81 10 -125 4 -44 8 -98 11 -120 10 -85 14 -122 19 -177 3 -31
7 -65 9 -75 2 -10 9 -61 16 -113 7 -52 14 -104 16 -115 2 -11 6 -38 9 -60 3
-22 7 -51 10 -65 3 -14 8 -41 11 -60 8 -50 42 -232 60 -315 8 -38 17 -81 19
-95 3 -14 7 -36 10 -50 14 -70 118 -475 155 -601 111 -375 282 -848 415 -1144
7 -16 34 -77 60 -135 53 -118 209 -433 275 -555 56 -104 133 -242 156 -282 52
-86 89 -150 100 -168 65 -116 326 -509 421 -635 182 -242 267 -356 272 -360 3
-3 33 -39 66 -80 33 -41 69 -86 81 -100 225 -262 213 -249 382 -428 184 -196
455 -460 618 -602 146 -127 256 -220 344 -290 58 -47 110 -89 116 -95 7 -5 24
-19 40 -30 15 -11 48 -36 73 -55 222 -172 591 -420 886 -598 122 -73 145 -86
370 -210 128 -70 644 -322 660 -322 2 0 32 -13 67 -29 272 -125 735 -291 1128
-406 152 -44 542 -145 616 -159 11 -2 100 -20 199 -39 99 -20 194 -38 210 -41
17 -2 73 -11 125 -20 91 -14 132 -20 203 -31 33 -5 155 -20 240 -29 26 -4 66
-8 90 -11 23 -3 65 -7 92 -9 83 -6 218 -17 259 -21 225 -23 1145 -23 1287 0
13 2 67 6 119 10 52 3 113 8 135 10 22 3 67 7 100 10 33 3 74 7 90 10 17 2 53
7 80 10 28 3 79 10 115 15 36 5 85 11 110 14 25 3 54 8 65 10 11 2 42 7 68 10
26 4 71 11 100 17 29 6 66 13 82 15 17 3 77 14 134 25 57 12 116 23 130 25 14
3 34 7 43 10 10 3 30 7 45 10 100 17 529 128 693 179 47 15 99 30 115 35 17 4
68 20 115 36 47 15 87 28 90 29 3 1 12 4 20 8 8 3 53 19 100 35 127 45 281
102 315 117 17 8 77 33 135 56 338 134 864 393 1168 574 9 6 40 23 67 39 177
103 549 346 713 465 167 122 462 348 482 371 3 3 46 39 95 80 395 328 842 773
1150 1144 22 27 47 56 56 65 32 33 219 271 331 422 148 198 373 530 480 710
10 16 44 73 76 126 166 274 407 743 518 1005 13 32 35 81 48 110 115 256 284
730 386 1083 43 150 121 443 134 507 3 13 7 32 10 43 4 18 39 181 51 244 8 36
32 169 39 211 4 19 11 58 16 85 10 56 14 83 36 235 18 131 22 161 29 230 3 30
8 72 11 92 3 20 7 60 9 89 2 29 6 82 10 118 37 388 42 1124 10 1541 -6 75 -16
193 -20 225 -2 17 -6 62 -10 100 -4 39 -8 81 -10 95 -2 14 -6 43 -9 65 -26
203 -77 522 -101 635 -7 32 -14 67 -20 103 -3 15 -12 60 -21 100 -15 66 -26
119 -38 174 -31 147 -159 593 -239 833 -59 177 -186 520 -217 585 -5 11 -21
49 -36 85 -14 36 -34 83 -44 105 -10 22 -39 87 -65 145 -248 554 -640 1220
-1014 1725 -138 185 -382 491 -456 571 -5 6 -37 42 -70 79 -53 61 -82 93 -188
209 -188 204 -552 552 -782 747 -11 9 -42 36 -69 59 -257 219 -675 526 -991
727 -245 156 -665 400 -665 386 0 -3 -8 1 -17 10 -49 43 -707 348 -958 444
-49 18 -99 38 -110 42 -145 61 -484 175 -746 250 -421 121 -808 205 -1269 276
-14 2 -63 9 -110 15 -131 17 -163 21 -190 25 -14 2 -59 7 -100 10 -41 3 -86 8
-100 10 -14 2 -70 7 -125 10 -55 4 -116 8 -135 10 -131 12 -902 28 -913 19z"/>
</g>
</svg>
